<svg xmlns="http://www.w3.org/2000/svg" width="256" height="256" viewBox="0 0 100 100"><rect width="100" height="100" rx="20" fill="#00a6ff" data-darkreader-inline-fill="" style="--darkreader-inline-fill:#0085cc;"></rect><path d="M33.93 58.44L33.93 58.44Q33.53 58.73 32.86 58.96Q32.19 59.19 31.38 59.19L31.38 59.19Q30.45 59.19 29.73 58.90Q29.00 58.61 28.71 57.97L28.71 57.97Q25.58 51.48 23.32 46.08Q21.06 40.69 19.67 37.15L19.67 37.15L19.43 37.15Q19.26 41.50 19.06 45.24Q18.85 48.98 18.62 52.55Q18.39 56.12 18.16 59.77Q17.93 63.43 17.69 67.60L17.69 67.60Q17.35 67.72 16.79 67.83Q16.24 67.95 15.61 67.95L15.61 67.95Q14.33 67.95 13.81 67.43Q13.29 66.91 13.29 65.92L13.29 65.92Q13.29 65.34 13.37 63.43Q13.46 61.51 13.63 58.79Q13.81 56.06 14.01 52.75Q14.21 49.45 14.47 46.03Q14.74 42.60 15.00 39.30Q15.26 35.99 15.49 33.27L15.49 33.27Q15.95 32.86 16.82 32.51Q17.69 32.16 18.80 32.16L18.80 32.16Q21.46 32.16 22.51 34.31L22.51 34.31Q23.61 36.57 24.74 39.10Q25.87 41.62 27.00 44.23Q28.13 46.84 29.21 49.39Q30.28 51.94 31.27 54.26L31.27 54.26L31.50 54.26Q32.77 51.19 34.05 48.20Q35.33 45.21 36.54 42.43Q37.76 39.65 38.86 37.21Q39.97 34.77 40.84 32.74L40.84 32.74Q41.36 32.45 42.17 32.31Q42.98 32.16 43.68 32.16L43.68 32.16Q46.40 32.16 46.81 34.02L46.81 34.02Q47.04 35.06 47.33 37.47Q47.62 39.88 47.91 43.01Q48.20 46.14 48.46 49.74Q48.72 53.33 48.96 56.67Q49.19 60.00 49.36 62.82Q49.54 65.63 49.65 67.25L49.65 67.25Q48.61 67.95 47.22 67.95L47.22 67.95Q46.35 67.95 45.68 67.52Q45.01 67.08 44.90 65.92L44.90 65.92Q44.61 61.69 44.37 57.51Q44.14 53.33 43.94 49.56Q43.74 45.79 43.56 42.63Q43.39 39.47 43.27 37.27L43.27 37.27L43.04 37.27Q42.40 38.89 41.56 40.92Q40.72 42.95 39.59 45.50Q38.46 48.06 37.07 51.28Q35.67 54.49 33.93 58.44ZM86.71 67.49L86.71 67.49Q86.37 67.60 85.79 67.75Q85.21 67.89 84.51 67.89L84.51 67.89Q81.96 67.89 81.96 65.75L81.96 65.75L81.96 51.71L63.86 51.71L63.86 67.49Q63.51 67.60 62.93 67.75Q62.35 67.89 61.66 67.89L61.66 67.89Q59.11 67.89 59.11 65.75L59.11 65.75L59.11 32.45Q59.40 32.34 60.00 32.19Q60.61 32.05 61.31 32.05L61.31 32.05Q63.86 32.05 63.86 34.19L63.86 34.19L63.86 47.77L81.96 47.77L81.96 32.45Q82.25 32.34 82.86 32.19Q83.47 32.05 84.16 32.05L84.16 32.05Q86.71 32.05 86.71 34.19L86.71 34.19L86.71 67.49Z" fill="#fff" data-darkreader-inline-fill="" style="--darkreader-inline-fill:#181a1b;"></path></svg>